<svg>
<path d="m33.56,3.93l-2.69-2.64c-.29-.29-.3-.76-.01-1.06.29-.3.77-.3,1.07-.01l3.88,3.84.1.09s.07.07.1.11c.03.04.05.09.07.13.04.09.06.19.06.29s-.02.2-.06.29c-.04.09-.09.18-.17.25l-3.98,3.92c-.15.14-.34.22-.53.22-.2,0-.39-.08-.54-.23-.29-.29-.28-.77.01-1.06l2.69-2.64-3.14.03c-.69.07-1.35.36-1.87.83-1.01.91-2.32,1.4-3.68,1.38-1.35.02-2.66-.47-3.67-1.38h0c-1.26-1.26-3.28-1.25-4.53,0-1,.91-2.31,1.4-3.67,1.38-1.35.02-2.66-.47-3.67-1.38h0c-1.25-1.26-3.28-1.25-4.53,0-1,.91-2.31,1.4-3.67,1.38-1.9,0-1.06-1.39,0-1.39.85,0,1.67-.34,2.27-.94,2.1-1.85,5.24-1.85,7.34,0,.6.6,1.42.94,2.26.94s1.67-.34,2.27-.94c1-.91,2.31-1.4,3.67-1.38,1.35-.02,2.66.47,3.66,1.38.61.6,1.42.94,2.27.94s1.67-.34,2.27-.94c.85-.76,1.67-1.24,2.79-1.36.02,0,.43-.04.59-.04"/>
</svg>