<?xml version="1.0" encoding="UTF-8"?><svg id="Capa_1" xmlns="http://www.w3.org/2000/svg" viewBox="0 0 17.75 11.14"><defs><style>.cls-1{fill:#98a2eb;}</style></defs><path id="Icon_awesome-behance" class="cls-1" d="m7.15,4.99c.93-.36,1.53-1.28,1.49-2.28,0-2.18-1.62-2.71-3.49-2.71H0v10.93h5.3c1.99,0,3.85-.95,3.85-3.17.1-1.29-.74-2.46-1.99-2.77h0ZM2.4,1.87h2.25c.87,0,1.65.24,1.65,1.25,0,.93-.61,1.3-1.46,1.3h-2.44V1.87Zm2.57,7.2h-2.57v-3h2.62c1.06,0,1.73.44,1.73,1.56s-.8,1.45-1.78,1.45h0ZM16.02,1.65h-4.43V.57h4.43v1.07Zm1.73,5.43c0-2.34-1.37-4.29-3.85-4.29-2.19-.04-4.01,1.7-4.05,3.9,0,.1,0,.19,0,.29-.17,2.12,1.42,3.98,3.54,4.14.17.01.34.02.51,0,1.72.14,3.28-.99,3.7-2.66h-1.91c-.31.66-.99,1.06-1.72,1.03-.98.09-1.86-.63-1.95-1.61-.01-.13-.01-.27,0-.4h5.71c0-.13.02-.26.02-.4h0Zm-5.72-.97c0-.94.77-1.7,1.71-1.69.03,0,.06,0,.09,0,.89-.06,1.67.61,1.73,1.5,0,.06,0,.13,0,.19h-3.53Z"/></svg>