<svg  viewBox="0 0 19.12 18.64">
<path id="Icon_awesome-github" class="cls-1" d="m6.4,15.01c0,.08-.09.14-.2.14-.13.01-.22-.05-.22-.14s.09-.14.2-.14.22.05.22.14Zm-1.19-.17c-.03.08.05.17.17.19.09.04.19,0,.24-.08.02-.08-.05-.17-.17-.2-.09-.03-.19,0-.24.09Zm1.7-.07c-.11.03-.19.1-.18.19s.11.13.23.1.19-.1.18-.18-.12-.13-.23-.11h0ZM9.44,0C4.33-.1.11,3.94,0,9.05c0,.12,0,.24,0,.36-.03,4.16,2.6,7.87,6.53,9.22.49.09.67-.22.67-.47s-.01-1.56-.01-2.37c0,0-2.7.58-3.26-1.15,0,0-.44-1.12-1.07-1.41,0,0-.88-.6.06-.59.62.08,1.17.45,1.49.99.53.99,1.77,1.37,2.76.83.02,0,.03-.02.05-.03.05-.49.27-.95.62-1.3-2.16-.24-4.33-.55-4.33-4.26-.04-.85.29-1.68.91-2.27-.29-.85-.26-1.79.1-2.62.81-.26,2.66,1.04,2.66,1.04,1.58-.44,3.26-.44,4.84,0,0,0,1.85-1.3,2.66-1.05.36.83.39,1.76.1,2.62.64.58,1.01,1.41.99,2.27,0,3.72-2.27,4.02-4.42,4.26.47.47.71,1.12.65,1.79,0,1.3-.01,2.91-.01,3.22,0,.25.18.56.67.47,3.92-1.35,6.53-5.06,6.47-9.21C19.09,4.19,14.84-.02,9.62,0c-.06,0-.12,0-.19,0ZM3.75,13.29s-.04.13.03.2.15.09.2.04c.05-.05.04-.13-.03-.2s-.15-.09-.2-.04Zm-.42-.31c-.03.05.01.11.09.15.05.04.12.03.16-.02,0,0,0,0,0,0,.03-.05-.01-.11-.09-.15-.08-.02-.14-.02-.17.03Zm1.25,1.37c-.06.05-.04.17.05.24.09.09.2.1.25.04s.03-.17-.05-.24c-.09-.09-.2-.1-.25-.04h0Zm-.44-.57c-.06.04-.06.14,0,.23s.17.13.22.09c.06-.07.06-.17,0-.24-.06-.09-.16-.12-.22-.08h0Z"/></svg>