<svg viewBox="0 0 19 19">
    <path d="m9.5,4.62c-2.69,0-4.87,2.19-4.87,4.88,0,2.69,2.19,4.87,4.88,4.87,2.69,0,4.87-2.18,4.87-4.87,0-2.69-2.18-4.88-4.87-4.88h0Zm0,8.04c-1.75,0-3.16-1.42-3.16-3.16,0-1.75,1.42-3.16,3.16-3.16,1.75,0,3.16,1.42,3.16,3.16h0c0,1.75-1.42,3.16-3.16,3.16,0,0,0,0,0,0Z"/>
    <path d="m13.42.06C11.67-.02,7.34-.02,5.59.06c-1.48-.03-2.91.53-3.99,1.54C-.22,3.42,0,5.89,0,9.5s-.21,6.1,1.59,7.9c1.83,1.83,4.33,1.59,7.9,1.59s4.92,0,6.22-.5c1.76-.68,3.09-2.26,3.22-5.08.08-1.75.08-6.08,0-7.83-.16-3.34-1.95-5.36-5.52-5.52Zm2.77,16.13c-1.2,1.2-2.86,1.09-6.7,1.09s-5.55.06-6.7-1.1c-1.33-1.33-1.09-3.46-1.09-6.69,0-4.37-.45-7.52,3.94-7.75,1-.04,1.3-.05,3.84-.05l.04.02c4.22,0,7.53-.44,7.73,3.95.05,1,.06,1.3.06,3.84,0,3.91.07,5.51-1.1,6.69h0Z"/>
    <circle id="Elipse_1" cx="14.57" cy="4.43" r="1.14"/>
</svg>