<svg xmlns="http://www.w3.org/2000/svg" viewBox="0 0 27 27">
<path d="m19.13,2.25c3.1,0,5.62,2.52,5.62,5.62v11.25c0,3.1-2.52,5.62-5.62,5.62H7.88c-3.1,0-5.62-2.52-5.62-5.62V7.88c0-3.1,2.52-5.62,5.62-5.62h11.25m0-2.25H7.88C3.53.01.01,3.53,0,7.88v11.25c.01,4.34,3.53,7.86,7.88,7.88h11.25c4.34-.01,7.86-3.53,7.88-7.88V7.88c-.01-4.34-3.53-7.86-7.88-7.88Z"/><path id="Trazado_47" d="m20.81,7.88c-.93,0-1.69-.75-1.69-1.69s.75-1.69,1.69-1.69,1.69.75,1.69,1.69h0c0,.93-.75,1.69-1.68,1.69,0,0,0,0,0,0Z"/><path id="Trazado_48" d="m13.5,9c2.49,0,4.5,2.01,4.5,4.5s-2.01,4.5-4.5,4.5-4.5-2.01-4.5-4.5,2.01-4.5,4.5-4.5m0-2.25c-3.73,0-6.75,3.02-6.75,6.75s3.02,6.75,6.75,6.75,6.75-3.02,6.75-6.75c0-3.73-3.02-6.75-6.75-6.75Z"/>
</svg>